<svg id="Ebene_1" data-name="Ebene 1" xmlns="http://www.w3.org/2000/svg" viewBox="0 0 1000 200"><defs><style>.cls-1{fill:blue;}</style></defs><path class="cls-1" d="M421.27919,100.28155H405.77291a4.10028,4.10028,0,0,0-4.10044,4.09976V123.988H370.64508V49.66366a4.09969,4.09969,0,0,0-4.0957-4.09975l-.00472-.00067-.00474.00067H351.04378l-.00472-.00067-.00474.00067a4.09969,4.09969,0,0,0-4.0957,4.09975v93.93105a4.10071,4.10071,0,0,0,4.09976,4.10043l.00068.00067h70.24013l.00066-.00067a4.10071,4.10071,0,0,0,4.09976-4.10043V104.382a4.10041,4.10041,0,0,0-4.10042-4.10044"/><path class="cls-1" d="M511.86971,69.26935h4.0673a4.10015,4.10015,0,0,0,4.09979-4.09569V49.6586a4.10015,4.10015,0,0,0-4.09979-4.0957H453.19342a4.09967,4.09967,0,0,0-4.09974,4.0957l-.00066.004.00066.00473v15.4975l-.00066.00405.00066.00473a4.09966,4.09966,0,0,0,4.09974,4.09569h19.46421V123.989H453.19342a4.09909,4.09909,0,0,0-4.09974,4.095l-.00066.00473.00066.00473v15.49681l-.00066.00473.00066.00472a4.09967,4.09967,0,0,0,4.09974,4.09571H515.937a4.10016,4.10016,0,0,0,4.09979-4.09571V128.08405a4.09958,4.09958,0,0,0-4.09979-4.095H496.36407V69.26935Z"/><path class="cls-1" d="M244.80551,100.28135l16.087-31.01118h22.74281l16.0877,31.01118ZM298.003,51.26393l-.02432-.01418C296.45186,48.19,292.15426,45.563,287.86947,45.563l-.00946.00067H256.66853l-.00946-.00067c-4.28479,0-8.58241,2.62693-10.10926,5.68671l-.02431.01418-25.29409,49.01742v43.31383a4.10084,4.10084,0,0,0,4.10043,4.10044H240.7071a4.09972,4.09972,0,0,0,4.09841-4.08491l.00135-.01553-.00135-.01552V123.98849H299.723v19.60669a4.1004,4.1004,0,0,0,4.10042,4.10044h15.37323a4.10026,4.10026,0,0,0,4.09976-4.10044V99.92952Z"/><path class="cls-1" d="M567.31758,100.28135l16.08771-31.01118h22.74212l16.08771,31.01118Zm53.19755-49.01742-.02432-.01418C618.96392,48.19,614.66633,45.563,610.38152,45.563l-.00943.00067H579.18057l-.00944-.00067c-4.28481,0-8.58239,2.62693-10.10928,5.68671l-.02428.01418-25.29342,49.01742v43.31383a4.10027,4.10027,0,0,0,4.09974,4.10044h15.37527a4.0993,4.0993,0,0,0,4.09842-4.08491l.002-.01553-.002-.01552V123.98849h54.91754v19.60669a4.10039,4.10039,0,0,0,4.1004,4.10044h15.37325a4.10025,4.10025,0,0,0,4.09974-4.10044V99.92952Z"/><path class="cls-1" d="M173.81979,115.88345a7.75222,7.75222,0,0,1-7.75245,7.75246H118.96911V69.2701h47.09823a7.74284,7.74284,0,0,1,7.75245,7.75246Zm-7.73422-70.31981-.01891-.00067-.01891.00067H99.50018l-.00473-.00067-.00473.00067a4.10013,4.10013,0,0,0-4.0957,4.09977v93.93171a4.10084,4.10084,0,0,0,4.10043,4.10043h66.57121a31.46052,31.46052,0,0,0,31.46026-31.46027V77.02323a31.45982,31.45982,0,0,0-31.44135-31.45959"/><path class="cls-1" d="M692.04959,123.98861H672.84266a3.52134,3.52134,0,0,0-3.34275,3.3441V144.353a3.38963,3.38963,0,0,0,3.34275,3.34274h8.32981v4.56639a8.15793,8.15793,0,0,1-8.32981,7.9537,3.67526,3.67526,0,0,0-3.34275,3.34409v7.72072a3.34648,3.34648,0,0,0,3.34275,3.15637A22.39134,22.39134,0,0,0,695.395,152.26213V127.33271a3.52433,3.52433,0,0,0-3.34543-3.3441"/><path class="cls-1" d="M744.87744,45.45019h7.37793q4.623,0,6.88477,3.06006,2.26025,3.06006,2.26074,8.80567,0,5.781-2.26074,8.82324-2.26173,3.04321-6.88477,3.043h-7.37793Zm7.07129,20.12793a4.20182,4.20182,0,0,0,3.62109-1.5913,7.74508,7.74508,0,0,0,1.17286-4.63916V55.25049a7.676,7.676,0,0,0-1.17286-4.6045,4.20212,4.20212,0,0,0-3.62109-1.59179h-2.68555V65.57812Z"/><path class="cls-1" d="M779.45459,69.18213a3.50559,3.50559,0,0,1-2.46484-.79883,3.465,3.465,0,0,1-1.03711-2.22705h-.16993A4.3779,4.3779,0,0,1,773.9126,68.689a6.20034,6.20034,0,0,1-3.43457.90137,6.1034,6.1034,0,0,1-4.21582-1.394,4.92192,4.92192,0,0,1-1.56348-3.876q0-5.3042,7.78613-5.3042h3.09375V57.86035a3.502,3.502,0,0,0-.8164-2.51611,3.54794,3.54794,0,0,0-2.65137-.8501,4.96382,4.96382,0,0,0-2.68652.646,6.056,6.056,0,0,0-1.7334,1.666l-2.48242-2.10791a6.48675,6.48675,0,0,1,2.63476-2.46533,9.71374,9.71374,0,0,1,4.709-1.00293,8.27807,8.27807,0,0,1,5.42285,1.61523,5.87884,5.87884,0,0,1,1.95508,4.811V65.918h2.07421v3.26416Zm-7.51367-2.584a4.40181,4.40181,0,0,0,2.60058-.731,2.30832,2.30832,0,0,0,1.03711-1.98926v-2.3457h-2.99218q-3.56983,0-3.57032,2.24414v.67968a1.8214,1.8214,0,0,0,.78223,1.59815A3.69882,3.69882,0,0,0,771.94092,66.59814Z"/><path class="cls-1" d="M794.5835,69.18213a4.732,4.732,0,0,1-3.70606-1.3291,4.96755,4.96755,0,0,1-1.18945-3.44239V55.03808H784.5874v-3.3999h3.46875a2.12591,2.12591,0,0,0,1.4961-.42529,2.06346,2.06346,0,0,0,.4414-1.5127v-4.25h4.0459v6.188h7.14063v3.3999h-7.14063V65.78223h7.14063v3.3999Z"/><path class="cls-1" d="M820.25342,69.18213a3.50563,3.50563,0,0,1-2.46485-.79883,3.46514,3.46514,0,0,1-1.03711-2.22705h-.16992a4.378,4.378,0,0,1-1.87011,2.53271,6.20034,6.20034,0,0,1-3.43457.90137,6.10338,6.10338,0,0,1-4.21582-1.394,4.92192,4.92192,0,0,1-1.56348-3.876q0-5.3042,7.78613-5.3042h3.09375V57.86035a3.502,3.502,0,0,0-.8164-2.51611,3.54794,3.54794,0,0,0-2.65137-.8501,4.96388,4.96388,0,0,0-2.68653.646,6.05613,6.05613,0,0,0-1.73339,1.666l-2.48243-2.10791a6.48684,6.48684,0,0,1,2.63477-2.46533,9.71372,9.71372,0,0,1,4.709-1.00293,8.27812,8.27812,0,0,1,5.42286,1.61523,5.87884,5.87884,0,0,1,1.95507,4.811V65.918h2.07422v3.26416Zm-7.51367-2.584a4.40181,4.40181,0,0,0,2.60058-.731,2.30832,2.30832,0,0,0,1.03711-1.98926v-2.3457h-2.99219q-3.56982,0-3.57031,2.24414v.67968a1.82137,1.82137,0,0,0,.78223,1.59815A3.69882,3.69882,0,0,0,812.73975,66.59814Z"/><path class="cls-1" d="M745.79541,108.43262V84.70068h4.45313v20.06006h10.50683v3.67188Z"/><path class="cls-1" d="M766.12646,105.03223h5.78028V94.28857h-5.78028v-3.3999H776.2583v14.14356h5.37207v3.40039H766.12646Zm7.95606-16.86377a2.94087,2.94087,0,0,1-2.15918-.646,2.15584,2.15584,0,0,1-.62891-1.564v-.81591a2.15743,2.15743,0,0,1,.62891-1.564,3.93146,3.93146,0,0,1,4.31836,0,2.16139,2.16139,0,0,1,.62891,1.564v.81591a2.15978,2.15978,0,0,1-.62891,1.564A2.944,2.944,0,0,1,774.08252,88.16846Z"/><path class="cls-1" d="M794.5835,108.43262a4.73365,4.73365,0,0,1-3.70606-1.32911,4.96753,4.96753,0,0,1-1.18945-3.44238V94.28857H784.5874v-3.3999h3.46875a2.12591,2.12591,0,0,0,1.4961-.42529,2.06346,2.06346,0,0,0,.4414-1.5127v-4.25h4.0459v6.188h7.14063v3.3999h-7.14063v10.74366h7.14063v3.40039Z"/><path class="cls-1" d="M814.20166,108.84082a10.1018,10.1018,0,0,1-3.74023-.64649,7.35694,7.35694,0,0,1-2.73731-1.83593,7.95117,7.95117,0,0,1-1.68262-2.87305,12.71229,12.71229,0,0,1,.01661-7.63281,8.2564,8.2564,0,0,1,1.68359-2.89014,7.35979,7.35979,0,0,1,2.63476-1.83594,9.68909,9.68909,0,0,1,6.91895-.01464,7.25808,7.25808,0,0,1,2.60059,1.79052,7.99636,7.99636,0,0,1,1.64941,2.79785,10.814,10.814,0,0,1,.57813,3.61524V100.749h-12.3086v.44141a4.12671,4.12671,0,0,0,1.19043,3.07715,4.54163,4.54163,0,0,0,3.332,1.17285,5.608,5.608,0,0,0,2.80469-.66309,6.02616,6.02616,0,0,0,1.95508-1.751l2.48242,2.46777a7.69536,7.69536,0,0,1-2.77148,2.36621A9.64728,9.64728,0,0,1,814.20166,108.84082ZM813.895,93.67676a3.91894,3.91894,0,0,0-2.958,1.165,4.25556,4.25556,0,0,0-1.12207,3.083V98.165H817.771v-.3086a4.33551,4.33551,0,0,0-1.03711-3.04931A3.662,3.662,0,0,0,813.895,93.67676Z"/><path class="cls-1" d="M826.54248,105.03223H830.895V94.28857h-4.35254v-3.3999h8.7041V95.7168h.27246a9.43375,9.43375,0,0,1,.66309-1.79737,5.68037,5.68037,0,0,1,1.08789-1.541,5.07076,5.07076,0,0,1,1.61426-1.07862,5.72984,5.72984,0,0,1,2.27832-.41113h1.90429v4.08008H839.4624a3.92489,3.92489,0,0,0-4.21582,4.12793v5.93555h6.08594v3.40039h-14.79Z"/><path class="cls-1" d="M861.05225,108.43262a3.50792,3.50792,0,0,1-2.46485-.79883,3.46406,3.46406,0,0,1-1.03711-2.22754h-.16992a4.38056,4.38056,0,0,1-1.87012,2.5332,6.20029,6.20029,0,0,1-3.43457.90137,6.10363,6.10363,0,0,1-4.21582-1.39453,4.92054,4.92054,0,0,1-1.56347-3.876q0-5.30419,7.78613-5.30371h3.09375V97.11035a3.49989,3.49989,0,0,0-.81641-2.51562,3.5479,3.5479,0,0,0-2.65136-.8501,4.964,4.964,0,0,0-2.68653.646,6.04993,6.04993,0,0,0-1.7334,1.666l-2.48242-2.10791a6.48684,6.48684,0,0,1,2.63477-2.46533,9.71369,9.71369,0,0,1,4.709-1.00293,8.27807,8.27807,0,0,1,5.42285,1.61523,5.87846,5.87846,0,0,1,1.95508,4.81055v8.26269h2.07422v3.26368Zm-7.51368-2.584a4.39853,4.39853,0,0,0,2.60059-.73144,2.30549,2.30549,0,0,0,1.03711-1.98828v-2.34668h-2.99219q-3.56982,0-3.57031,2.24414v.68066a1.82165,1.82165,0,0,0,.78223,1.59766A3.70254,3.70254,0,0,0,853.53857,105.84863Z"/><path class="cls-1" d="M875.67139,108.84082a9.53585,9.53585,0,0,1-3.60352-.64649,7.401,7.401,0,0,1-2.70312-1.83593,8.11235,8.11235,0,0,1-1.7002-2.88965,12.48917,12.48917,0,0,1,0-7.61621,8.12734,8.12734,0,0,1,1.7002-2.89014,7.47121,7.47121,0,0,1,2.68554-1.83594,9.42644,9.42644,0,0,1,3.58692-.646,7.84871,7.84871,0,0,1,4.48828,1.15625,7.39484,7.39484,0,0,1,2.584,3.06006l-3.36621,1.83545a4.5793,4.5793,0,0,0-1.34277-1.81885,3.67424,3.67424,0,0,0-2.36328-.69678,3.849,3.849,0,0,0-2.97461,1.12207,4.33173,4.33173,0,0,0-1.03711,3.05957v2.92481a4.34618,4.34618,0,0,0,1.03711,3.043,3.9057,3.9057,0,0,0,3.043,1.13868,4.02,4.02,0,0,0,2.499-.71387,5.21159,5.21159,0,0,0,1.5127-1.9043l3.26464,1.93848a7.35863,7.35863,0,0,1-2.66894,3.043A8.32107,8.32107,0,0,1,875.67139,108.84082Z"/><path class="cls-1" d="M900.18506,90.88867H904.605l-8.39844,20.67188a6.3635,6.3635,0,0,1-1.90332,2.7373,5.33921,5.33921,0,0,1-3.36621.93457h-3.19629V111.833h4.18262l1.3252-3.57032-7.07129-17.374h4.624l2.68555,7.34375,1.87011,5.57617h.23828l1.87012-5.57617Z"/><path class="cls-1" d="M757.66064,147.68262l-1.666-6.05176h-7.03809l-1.63183,6.05176H742.8374l6.66406-23.73243h6.1875l6.69825,23.73243Zm-5.03125-19.34571h-.27246l-2.61816,9.68946h5.50781Z"/><path class="cls-1" d="M765.24268,144.28223h5.57617V125.92285h-5.57617v-3.40039h9.92773v21.75977h5.61035v3.40039H765.24268Z"/><path class="cls-1" d="M785.64209,144.28223h5.57617V125.92285h-5.57617v-3.40039h9.92773v21.75977h5.61036v3.40039H785.64209Z"/><path class="cls-1" d="M806.92529,144.28223h5.78028V133.53906h-5.78028v-3.40039h10.13184v14.14356h5.37207v3.40039H806.92529Zm7.95606-16.86329a2.943,2.943,0,0,1-2.15918-.64648,2.15551,2.15551,0,0,1-.62891-1.56348v-.8164a2.1555,2.1555,0,0,1,.62891-1.56348,3.929,3.929,0,0,1,4.31836,0,2.15943,2.15943,0,0,1,.6289,1.56348v.8164a2.15945,2.15945,0,0,1-.6289,1.56348A2.94606,2.94606,0,0,1,814.88135,127.41894Z"/><path class="cls-1" d="M840.65283,147.68262a3.50787,3.50787,0,0,1-2.46484-.79883,3.464,3.464,0,0,1-1.03711-2.22754H836.981a4.38056,4.38056,0,0,1-1.87012,2.5332,6.20034,6.20034,0,0,1-3.43457.90137,6.10361,6.10361,0,0,1-4.21582-1.39453,4.92055,4.92055,0,0,1-1.56348-3.876q0-5.3042,7.78614-5.30371h3.09375v-1.15625a3.49994,3.49994,0,0,0-.81641-2.51562,3.548,3.548,0,0,0-2.65137-.85059,4.95951,4.95951,0,0,0-2.68652.64648,6.06275,6.06275,0,0,0-1.7334,1.666l-2.48242-2.1084a6.49227,6.49227,0,0,1,2.63476-2.46484,9.71374,9.71374,0,0,1,4.709-1.00293,8.27807,8.27807,0,0,1,5.42285,1.61523,5.87912,5.87912,0,0,1,1.95508,4.81055v8.26269h2.07422v3.26368Zm-7.51367-2.584a4.39855,4.39855,0,0,0,2.60059-.73144,2.30551,2.30551,0,0,0,1.03711-1.98828v-2.34668h-2.99219q-3.56982,0-3.57031,2.24414v.68066a1.82167,1.82167,0,0,0,.78222,1.59766A3.70257,3.70257,0,0,0,833.13916,145.09863Z"/><path class="cls-1" d="M846.94189,147.68262V130.13867h4.35254v3.09375h.16993a6.344,6.344,0,0,1,1.78515-2.46484,4.97388,4.97388,0,0,1,3.34863-1.03711,5.50657,5.50657,0,0,1,4.19922,1.71679,6.9068,6.9068,0,0,1,1.61426,4.91309v11.32227h-4.35156V136.94726q0-3.81591-3.29785-3.8164a4.80567,4.80567,0,0,0-1.292.16992,3.45415,3.45415,0,0,0-1.10546.52832,2.72757,2.72757,0,0,0-.78125.86914,2.44806,2.44806,0,0,0-.28907,1.22656v11.75782Z"/><path class="cls-1" d="M875.67139,148.09082a9.53585,9.53585,0,0,1-3.60352-.64649,7.401,7.401,0,0,1-2.70312-1.83593,8.11235,8.11235,0,0,1-1.7002-2.88965,12.48917,12.48917,0,0,1,0-7.61621,8.12089,8.12089,0,0,1,1.7002-2.88965,7.46505,7.46505,0,0,1,2.68554-1.83594,9.417,9.417,0,0,1,3.58692-.64648,7.84871,7.84871,0,0,1,4.48828,1.15625,7.39959,7.39959,0,0,1,2.584,3.05957l-3.36621,1.83594a4.57418,4.57418,0,0,0-1.34277-1.81836,3.66863,3.66863,0,0,0-2.36328-.69727,3.849,3.849,0,0,0-2.97461,1.12207,4.33173,4.33173,0,0,0-1.03711,3.05957v2.92481a4.34618,4.34618,0,0,0,1.03711,3.043,3.9057,3.9057,0,0,0,3.043,1.13868,4.02,4.02,0,0,0,2.499-.71387,5.21159,5.21159,0,0,0,1.5127-1.9043l3.26464,1.93848a7.35863,7.35863,0,0,1-2.66894,3.043A8.32107,8.32107,0,0,1,875.67139,148.09082Z"/><path class="cls-1" d="M895.79932,148.09082a10.10186,10.10186,0,0,1-3.74024-.64649,7.3569,7.3569,0,0,1-2.7373-1.83593,7.95117,7.95117,0,0,1-1.68262-2.873,12.71239,12.71239,0,0,1,.0166-7.63281,8.24978,8.24978,0,0,1,1.6836-2.88965,7.35352,7.35352,0,0,1,2.63476-1.83594,9.68914,9.68914,0,0,1,6.91895-.01562,7.26541,7.26541,0,0,1,2.60058,1.791,7.992,7.992,0,0,1,1.64942,2.79785,10.81422,10.81422,0,0,1,.57812,3.61524V139.999H891.4126v.44141a4.12667,4.12667,0,0,0,1.19043,3.07715,4.54161,4.54161,0,0,0,3.332,1.17285,5.608,5.608,0,0,0,2.80469-.66309,6.02613,6.02613,0,0,0,1.95507-1.751l2.48243,2.46777a7.6954,7.6954,0,0,1-2.77149,2.36621A9.64724,9.64724,0,0,1,895.79932,148.09082Zm-.30664-15.16406a3.92072,3.92072,0,0,0-2.958,1.165,4.25556,4.25556,0,0,0-1.12207,3.083v.24024h7.95605v-.3086a4.33756,4.33756,0,0,0-1.03711-3.0498A3.66335,3.66335,0,0,0,895.49268,132.92676Z"/></svg>