<?xml version="1.0" encoding="UTF-8" standalone="no"?>
<!-- Created with Inkscape (http://www.inkscape.org/) -->
<svg xmlns:dc="http://purl.org/dc/elements/1.1/" xmlns:cc="http://creativecommons.org/ns#" xmlns:rdf="http://www.w3.org/1999/02/22-rdf-syntax-ns#" xmlns:svg="http://www.w3.org/2000/svg" xmlns="http://www.w3.org/2000/svg" xmlns:sodipodi="http://sodipodi.sourceforge.net/DTD/sodipodi-0.dtd" xmlns:inkscape="http://www.inkscape.org/namespaces/inkscape" id="svg2403" sodipodi:version="0.32" inkscape:version="0.46" width="200" height="50" xml:space="preserve" sodipodi:docname="Logo_Volkswagenstiftung.svg" version="1.0" inkscape:output_extension="org.inkscape.output.svg.inkscape"><metadata id="metadata2408"><rdf:RDF><cc:Work rdf:about=""><dc:format>image/svg+xml</dc:format><dc:type rdf:resource="http://purl.org/dc/dcmitype/StillImage"/></cc:Work></rdf:RDF></metadata><defs id="defs2406"><inkscape:perspective sodipodi:type="inkscape:persp3d" inkscape:vp_x="0 : 526.18109 : 1" inkscape:vp_y="0 : 1000 : 0" inkscape:vp_z="744.09448 : 526.18109 : 1" inkscape:persp3d-origin="372.04724 : 350.78739 : 1" id="perspective2410"/><clipPath clipPathUnits="userSpaceOnUse" id="clipPath2486"><path d="M 71.28,757.1603 L 229.08,757.1603 L 229.08,791.6003 L 71.28,791.6003 L 71.28,757.1603 z" id="path2488"/></clipPath><clipPath clipPathUnits="userSpaceOnUse" id="clipPath2560"><path d="M 458.16,413.2403 L 460.8,413.2403 L 460.8,425.6003 L 458.16,425.6003 L 458.16,413.2403 z" id="path2562"/></clipPath></defs><sodipodi:namedview inkscape:window-height="480" inkscape:window-width="640" inkscape:pageshadow="2" inkscape:pageopacity="0.0" guidetolerance="10.0" gridtolerance="10.0" objecttolerance="10.0" borderopacity="1.0" bordercolor="#666666" pagecolor="#ffffff" id="base" showgrid="false" inkscape:zoom="5.5395924" inkscape:cx="114.33082" inkscape:cy="10.940748" inkscape:current-layer="g2412"/><g id="g2412" inkscape:groupmode="layer" inkscape:label="20080528" transform="matrix(1.25,0,0,-1.25,-89.121452,989.47996)"><path d="M 78.64,768.4003 C 78.64,769.7203 77.68,770.6803 76.48,770.6803 C 75.16,770.6803 74.2,769.7203 74.2,768.4003 C 74.2,767.2003 75.16,766.2403 76.48,766.2403 C 77.68,766.2403 78.64,767.2003 78.64,768.4003" style="fill:#002850;fill-opacity:1;fill-rule:evenodd;stroke:none" id="path2414"/><path d="M 105.28,787.6003 C 105.28,788.2003 104.8,788.8003 104.2,788.8003 C 103.48,788.8003 103,788.2003 103,787.6003 C 103,787.0003 103.48,786.4003 104.2,786.4003 C 104.8,786.4003 105.28,787.0003 105.28,787.6003" style="fill:#002850;fill-opacity:1;fill-rule:evenodd;stroke:none" id="path2416"/><path d="M 105.28,768.6403 C 105.28,769.2403 104.8,769.8403 104.2,769.8403 C 103.48,769.8403 103,769.2403 103,768.6403 C 103,768.0403 103.48,767.4403 104.2,767.4403 C 104.8,767.4403 105.28,768.0403 105.28,768.6403" style="fill:#002850;fill-opacity:1;fill-rule:evenodd;stroke:none" id="path2418"/><path d="M 88.72,778.0003 C 88.72,779.6803 87.4,781.0003 85.84,781.0003 C 84.28,781.0003 82.96,779.6803 82.96,778.0003 C 82.96,776.3203 84.28,775.0003 85.84,775.0003 C 87.4,775.0003 88.72,776.3203 88.72,778.0003" style="fill:#002850;fill-opacity:1;fill-rule:evenodd;stroke:none" id="path2420"/><path d="M 98.44,768.4003 C 98.44,770.4403 96.76,772.1203 94.84,772.1203 C 92.92,772.1203 91.24,770.4403 91.24,768.4003 C 91.24,766.3603 92.92,764.6803 94.84,764.6803 C 96.76,764.6803 98.44,766.3603 98.44,768.4003" style="fill:#002850;fill-opacity:1;fill-rule:evenodd;stroke:none" id="path2422"/><path d="M 108.4,778.0003 C 108.4,780.4003 106.48,782.4403 104.08,782.4403 C 101.68,782.4403 99.76,780.4003 99.76,778.0003 C 99.76,775.6003 101.68,773.5603 104.08,773.5603 C 106.48,773.5603 108.4,775.6003 108.4,778.0003" style="fill:#002850;fill-opacity:1;fill-rule:evenodd;stroke:none" id="path2424"/><path d="M 124.84,782.3203 L 123.88,782.3203 L 121.72,776.2003 L 121.36,775.2403 L 121.12,774.1603 L 120.76,775.2403 L 120.52,776.0803 L 118.36,782.3203 L 117.28,782.3203 L 120.52,773.3203 L 121.48,773.3203" style="fill:#002850;fill-opacity:1;fill-rule:evenodd;stroke:none" id="path2426"/><path d="M 130.48,776.6803 L 130.48,777.6403 L 130.36,778.2403 L 130.12,778.8403 L 129.76,779.3203 L 129.28,779.5603 L 128.8,779.8003 L 128.32,780.0403 L 127.84,780.0403 L 127.12,779.9203 L 126.76,779.9203 L 126.52,779.6803 L 125.92,779.4403 L 125.56,778.9603 L 125.2,778.4803 L 124.96,777.8803 L 124.84,777.2803 L 124.72,776.5603 L 124.84,775.8403 L 124.84,775.3603 L 124.96,775.1203 L 125.2,774.4003 L 125.32,774.2803 L 125.56,774.0403 L 125.92,773.5603 L 126.4,773.4403 L 127,773.2003 L 127.6,773.2003 L 128.2,773.3203 L 128.56,773.3203 L 128.8,773.5603 L 129.28,773.8003 L 129.76,774.2803 L 130.12,774.7603 L 130.36,775.2403 L 130.48,775.7203 L 130.48,776.0803 L 130.48,776.6803 z M 129.76,776.6803 L 129.76,776.0803 L 129.52,775.3603 L 129.4,775.0003 L 129.16,774.5203 L 128.8,774.2803 L 128.56,774.0403 L 128.08,773.9203 L 127.72,773.9203 L 127.12,773.9203 L 126.76,774.0403 L 126.64,774.1603 L 126.52,774.2803 L 126.16,774.5203 L 125.92,775.0003 L 125.8,775.4803 L 125.68,776.0803 L 125.68,776.6803 L 125.68,777.2803 L 125.8,777.7603 L 125.92,778.3603 L 126.28,778.6003 L 126.52,778.9603 L 126.88,779.2003 L 127.24,779.3203 L 127.72,779.4403 L 128.2,779.3203 L 128.56,779.2003 L 128.8,779.0803 L 128.92,778.9603 L 129.16,778.7203 L 129.16,778.6003 L 129.4,778.2403 L 129.52,778.0003 L 129.64,777.7603 L 129.76,777.2803" style="fill:#002850;fill-opacity:1;fill-rule:evenodd;stroke:none" id="path2428"/><path d="M 132.28,773.3203 L 133.12,773.3203 L 133.12,783.0403 L 132.28,783.0403 L 132.28,773.3203 z" style="fill:#002850;fill-opacity:1;fill-rule:nonzero;stroke:none" id="path2430"/><path d="M 139.96,773.3203 L 137.2,776.9203 L 139.84,779.9203 L 138.76,779.9203 L 136.24,776.9203 L 136.24,783.0403 L 135.4,783.0403 L 135.4,773.3203 L 136.24,773.3203 L 136.24,776.9203 L 138.88,773.3203" style="fill:#002850;fill-opacity:1;fill-rule:evenodd;stroke:none" id="path2432"/><path d="M 145,775.2403 L 145,775.6003 L 144.88,775.9603 L 144.64,776.2003 L 144.52,776.4403 L 144.28,776.5603 L 143.92,776.8003 L 143.32,776.9203 L 142.72,777.1603 L 142.48,777.2803 L 142.24,777.4003 L 142,777.5203 L 141.76,777.7603 L 141.76,777.8803 L 141.76,778.2403 L 141.76,778.4803 L 141.76,778.6003 L 141.88,778.8403 L 142.12,779.0803 L 142.36,779.2003 L 142.48,779.3203 L 142.84,779.4403 L 143.2,779.4403 L 143.92,779.3203 L 144.52,779.2003 L 144.64,779.9203 L 143.92,780.0403 L 143.32,780.0403 L 142.72,780.0403 L 142.36,779.9203 L 141.76,779.6803 L 141.76,779.5603 L 141.52,779.4403 L 141.16,779.2003 L 141.04,778.8403 L 140.92,778.6003 L 140.92,778.1203 L 140.92,777.7603 L 141.04,777.4003 L 141.16,777.0403 L 141.4,776.9203 L 141.64,776.8003 L 141.88,776.5603 L 142.48,776.3203 L 143.2,776.2003 L 143.68,775.9603 L 143.8,775.8403 L 143.92,775.7203 L 143.92,775.6003 L 144.04,775.3603 L 144.16,775.1203 L 144.04,774.8803 L 143.92,774.5203 L 143.8,774.4003 L 143.68,774.2803 L 143.44,774.1603 L 143.2,774.0403 L 142.84,773.9203 L 142.48,773.9203 L 141.76,773.9203 L 141.28,774.0403 L 141.04,774.1603 L 141.04,773.3203 L 141.64,773.2003 L 142.36,773.2003 L 142.96,773.2003 L 143.44,773.3203 L 143.8,773.5603 L 144.28,773.8003 L 144.52,774.1603 L 144.76,774.4003 L 145,774.8803" style="fill:#002850;fill-opacity:1;fill-rule:evenodd;stroke:none" id="path2434"/><path d="M 155.68,779.9203 L 154.84,779.9203 L 153.52,775.6003 L 153.28,774.7603 L 153.16,774.1603 L 152.56,775.7203 L 151.24,779.9203 L 150.28,779.9203 L 148.96,775.6003 L 148.48,774.1603 L 148.12,775.6003 L 146.92,779.9203 L 145.96,779.9203 L 148,773.3203 L 148.96,773.3203 L 150.28,777.4003 L 150.64,779.0803 L 151.12,777.8803 L 152.56,773.3203 L 153.52,773.3203" style="fill:#002850;fill-opacity:1;fill-rule:evenodd;stroke:none" id="path2436"/><path d="M 168.88,772.1203 L 168.88,772.6003 L 168.76,772.9603 L 168.52,773.3203 L 168.28,773.5603 L 167.92,773.6803 L 167.68,773.9203 L 167.2,774.0403 L 166.72,774.0403 L 165.4,774.0403 L 164.92,774.0403 L 164.44,774.1603 L 164.32,774.4003 L 164.2,774.4003 L 164.2,774.6403 L 164.2,774.8803 L 164.32,775.0003 L 164.44,775.2403 L 164.68,775.2403 L 165.16,775.2403 L 165.64,775.2403 L 166.36,775.2403 L 166.6,775.2403 L 166.84,775.3603 L 167.08,775.4803 L 167.32,775.6003 L 167.56,775.7203 L 167.8,775.9603 L 167.8,776.0803 L 168.04,776.2003 L 168.28,776.6803 L 168.4,777.1603 L 168.4,777.7603 L 168.4,778.1203 L 168.28,778.6003 L 168.04,778.9603 L 167.8,779.3203 L 169,779.3203 L 169,779.9203 L 166.84,779.9203 L 166.36,780.0403 L 165.76,780.0403 L 165.16,780.0403 L 165.04,779.9203 L 164.68,779.8003 L 164.44,779.6803 L 164.2,779.5603 L 163.84,779.3203 L 163.72,779.0803 L 163.48,778.8403 L 163.24,778.4803 L 163.12,778.0003 L 163.12,777.5203 L 163.12,776.9203 L 163.36,776.3203 L 163.48,776.0803 L 163.6,775.9603 L 163.84,775.7203 L 164.08,775.4803 L 163.84,775.2403 L 163.6,775.1203 L 163.36,774.7603 L 163.36,774.4003 L 163.36,774.1603 L 163.48,773.9203 L 163.72,773.6803 L 163.96,773.5603 L 163.84,773.4403 L 163.6,773.2003 L 163.12,772.7203 L 163,772.3603 L 162.88,772.0003 L 162.88,771.7603 L 162.88,771.2803 L 163.12,770.9203 L 163.12,770.6803 L 163.24,770.5603 L 163.6,770.2003 L 163.96,770.0803 L 164.44,769.9603 L 164.92,769.8403 L 165.52,769.7203 L 166.24,769.8403 L 166.84,769.9603 L 167.44,770.2003 L 167.92,770.4403 L 168.4,770.8003 L 168.52,771.1603 L 168.76,771.4003 L 168.76,771.7603 L 168.88,772.1203 z M 167.68,777.6403 L 167.56,777.1603 L 167.44,776.9203 L 167.32,776.5603 L 167.08,776.2003 L 166.84,776.0803 L 166.48,775.9603 L 166.12,775.8403 L 165.76,775.8403 L 165.28,775.8403 L 165.04,775.9603 L 164.68,776.0803 L 164.44,776.2003 L 164.2,776.5603 L 164.08,776.8003 L 163.96,777.1603 L 163.84,777.6403 L 163.96,777.8803 L 164.08,778.3603 L 164.2,778.6003 L 164.44,778.8403 L 164.68,779.0803 L 165.04,779.3203 L 165.4,779.4403 L 165.76,779.4403 L 166.24,779.4403 L 166.48,779.3203 L 166.84,779.0803 L 167.08,778.8403 L 167.32,778.6003 L 167.44,778.3603 L 167.56,778.0003 L 167.68,777.6403 z M 168.04,772.0003 L 167.92,771.7603 L 167.8,771.4003 L 167.68,771.1603 L 167.44,770.9203 L 167.08,770.8003 L 166.6,770.5603 L 166.24,770.5603 L 165.76,770.4403 L 164.92,770.5603 L 164.44,770.6803 L 164.32,770.9203 L 163.96,771.0403 L 163.84,771.2803 L 163.72,771.5203 L 163.72,771.8803 L 163.72,772.1203 L 163.84,772.2403 L 163.96,772.7203 L 164.08,772.8403 L 164.32,772.9603 L 164.68,773.3203 L 166.48,773.3203 L 166.84,773.3203 L 167.08,773.2003 L 167.44,773.0803 L 167.68,772.9603 L 167.8,772.7203 L 167.92,772.6003 L 168.04,772.3603" style="fill:#002850;fill-opacity:1;fill-rule:evenodd;stroke:none" id="path2438"/><path d="M 175.24,777.4003 L 175.24,777.8803 L 175.12,778.3603 L 175,778.8403 L 174.76,779.2003 L 174.4,779.5603 L 173.92,779.8003 L 173.8,779.9203 L 173.44,780.0403 L 172.84,780.0403 L 172.48,780.0403 L 172.24,779.9203 L 171.76,779.8003 L 171.4,779.5603 L 171.16,779.4403 L 170.8,779.0803 L 170.56,778.7203 L 170.44,778.6003 L 170.44,778.2403 L 170.32,777.8803 L 170.08,777.2803 L 170.08,776.5603 L 170.08,775.8403 L 170.2,775.3603 L 170.32,775.1203 L 170.44,774.7603 L 170.44,774.4003 L 170.56,774.2803 L 170.8,774.0403 L 171.16,773.5603 L 171.76,773.4403 L 172,773.3203 L 172.36,773.2003 L 173.08,773.2003 L 173.56,773.2003 L 174.16,773.3203 L 174.64,773.4403 L 175.12,773.5603 L 175,774.4003 L 174.52,774.1603 L 174.16,774.0403 L 173.68,773.9203 L 173.08,773.9203 L 172.6,773.9203 L 172.12,774.0403 L 171.76,774.2803 L 171.64,774.4003 L 171.4,774.4003 L 171.28,774.6403 L 171.16,774.8803 L 171.16,775.1203 L 171.04,775.2403 L 171.04,775.9603 L 170.92,776.6803 L 175.24,776.6803 L 175.24,777.4003 z M 174.4,777.2803 L 171.04,777.2803 L 171.16,777.7603 L 171.16,778.1203 L 171.4,778.4803 L 171.64,778.7203 L 171.76,779.0803 L 172.12,779.2003 L 172.48,779.4403 L 172.84,779.4403 L 173.08,779.4403 L 173.44,779.2003 L 173.8,778.9603 L 173.8,778.8403 L 174.04,778.7203 L 174.16,778.4803 L 174.4,778.1203 L 174.4,777.7603" style="fill:#002850;fill-opacity:1;fill-rule:evenodd;stroke:none" id="path2440"/><path d="M 182.2,773.3203 L 182.2,777.8803 L 182.2,778.3603 L 182.08,778.7203 L 181.96,779.0803 L 181.72,779.4403 L 181.6,779.6803 L 181.12,779.9203 L 180.76,780.0403 L 180.28,780.0403 L 179.8,780.0403 L 179.44,779.9203 L 179.08,779.8003 L 178.84,779.5603 L 178.48,779.4403 L 178.36,779.0803 L 178.12,778.7203 L 177.88,778.3603 L 177.88,778.7203 L 178,779.2003 L 178,779.9203 L 177.16,779.9203 L 177.16,773.3203 L 178,773.3203 L 178,776.4403 L 178,777.0403 L 178.12,777.6403 L 178.36,778.1203 L 178.6,778.6003 L 178.96,778.8403 L 179.2,779.2003 L 179.44,779.3203 L 179.68,779.3203 L 180.04,779.4403 L 180.4,779.3203 L 180.76,779.3203 L 181,779.0803 L 181.12,778.8403 L 181.24,778.6003 L 181.36,778.3603 L 181.36,778.0003 L 181.36,777.6403 L 181.36,773.3203" style="fill:#002850;fill-opacity:1;fill-rule:evenodd;stroke:none" id="path2442"/><path d="M 105.28,758.9203 C 105.28,759.5203 104.8,760.1203 104.2,760.1203 C 103.48,760.1203 103,759.5203 103,758.9203 C 103,758.3203 103.48,757.7203 104.2,757.7203 C 104.8,757.7203 105.28,758.3203 105.28,758.9203" style="fill:#002850;fill-opacity:1;fill-rule:evenodd;stroke:none" id="path2444"/><path d="M 161.2,773.3203 L 160.48,773.3203 L 160.48,774.0403 L 160.48,774.7603 L 160.48,774.4003 L 160.36,774.2803 L 159.88,773.6803 L 159.64,773.5603 L 159.4,773.4403 L 158.8,773.2003 L 158.2,773.2003 L 157.84,773.2003 L 157.48,773.3203 L 157.12,773.4403 L 156.88,773.5603 L 156.64,773.8003 L 156.52,774.1603 L 156.52,774.4003 L 156.4,774.7603 L 156.52,775.2403 L 156.64,775.8403 L 156.76,776.0803 L 157,776.2003 L 157.36,776.6803 L 157.72,776.8003 L 157.84,776.9203 L 158.32,777.0403 L 158.56,777.1603 L 159.04,777.2803 L 159.28,777.2803 L 160.24,777.4003 L 160.48,777.4003 L 160.48,777.7603 L 160.36,778.0003 L 160.36,778.4803 L 160.24,778.6003 L 160,778.9603 L 159.76,779.0803 L 159.64,779.3203 L 159.16,779.3203 L 158.92,779.4403 L 158.44,779.3203 L 157.84,779.2003 L 157.36,779.0803 L 156.88,778.7203 L 156.76,779.4403 L 157.24,779.6803 L 157.84,779.9203 L 158.44,780.0403 L 159.04,780.0403 L 159.64,780.0403 L 160,779.9203 L 160.48,779.6803 L 160.72,779.4403 L 160.96,779.0803 L 161.08,778.7203 L 161.08,778.3603 L 161.2,777.8803 L 161.2,775.3603 L 161.2,773.3203 z M 160.48,776.3203 L 160.36,775.9603 L 160.24,775.4803 L 160,775.1203 L 159.76,774.6403 L 159.52,774.4003 L 159.4,774.2803 L 159.16,774.1603 L 158.8,773.9203 L 158.44,773.9203 L 158.08,773.9203 L 157.84,773.9203 L 157.6,774.1603 L 157.36,774.4003 L 157.24,774.6403 L 157.24,775.0003 L 157.24,775.2403 L 157.36,775.4803 L 157.6,775.8403 L 157.84,776.0803 L 158.32,776.3203 L 158.8,776.5603 L 159.52,776.6803 L 160.48,776.6803" style="fill:#002850;fill-opacity:1;fill-rule:evenodd;stroke:none" id="path2446"/><path d="M 189.52,776.0803 L 189.4,776.5603 L 189.28,776.9203 L 189.04,777.2803 L 188.92,777.6403 L 188.56,777.8803 L 188.32,778.1203 L 187.72,778.4803 L 187,778.7203 L 186.4,779.0803 L 186.16,779.2003 L 185.92,779.4403 L 185.8,779.5603 L 185.8,779.9203 L 185.8,780.1603 L 185.8,780.2803 L 186.04,780.5203 L 186.16,780.6403 L 186.4,780.8803 L 186.64,781.0003 L 187,781.0003 L 187.24,781.0003 L 188.08,781.0003 L 188.8,780.7603 L 188.92,782.3203 L 188.08,782.4403 L 187.36,782.4403 L 186.52,782.4403 L 186.28,782.3203 L 185.92,782.2003 L 185.68,782.0803 L 185.32,781.9603 L 184.96,781.7203 L 184.48,781.2403 L 184.24,780.8803 L 184.12,780.2803 L 184,779.6803 L 184,779.2003 L 184.24,778.7203 L 184.36,778.4803 L 184.6,778.1203 L 184.84,777.8803 L 185.08,777.6403 L 185.8,777.2803 L 186.52,777.0403 L 187.12,776.8003 L 187.36,776.5603 L 187.48,776.3203 L 187.72,776.0803 L 187.72,775.8403 L 187.72,775.4803 L 187.6,775.2403 L 187.36,775.1203 L 187.24,775.0003 L 187,774.7603 L 186.76,774.7603 L 186.16,774.6403 L 185.68,774.6403 L 185.2,774.7603 L 184.72,774.8803 L 184.36,775.0003 L 184.24,773.4403 L 184.6,773.3203 L 185.08,773.2003 L 186.04,773.2003 L 186.76,773.2003 L 187.48,773.4403 L 188.08,773.5603 L 188.32,773.8003 L 188.56,773.9203 L 188.92,774.4003 L 189.16,774.8803 L 189.4,775.4803 L 189.4,775.8403" style="fill:#002850;fill-opacity:1;fill-rule:evenodd;stroke:none" id="path2448"/><path d="M 194.32,773.3203 L 194.32,774.6403 L 193.96,774.6403 L 193.6,774.5203 L 193.12,774.6403 L 193.12,774.7603 L 193,774.8803 L 192.88,775.0003 L 192.76,775.2403 L 192.76,775.7203 L 192.76,778.6003 L 194.32,778.6003 L 194.32,779.9203 L 192.76,779.9203 L 192.76,782.4403 L 191.08,781.9603 L 191.08,779.9203 L 190,779.9203 L 190,778.6003 L 191.08,778.6003 L 191.08,775.2403 L 191.08,774.6403 L 191.08,774.4003 L 191.2,774.2803 L 191.32,773.9203 L 191.56,773.5603 L 191.8,773.4403 L 192.04,773.3203 L 192.4,773.2003 L 193,773.2003 L 193.72,773.2003" style="fill:#002850;fill-opacity:1;fill-rule:evenodd;stroke:none" id="path2450"/><path d="M 197.56,781.8403 L 197.56,781.9603 L 197.44,782.2003 L 197.32,782.4403 L 197.2,782.5603 L 197.08,782.6803 L 196.96,782.8003 L 196.48,782.8003 L 196.12,782.8003 L 195.76,782.5603 L 195.64,782.2003 L 195.52,781.8403 L 195.52,781.6003 L 195.64,781.3603 L 195.64,781.2403 L 195.76,781.1203 L 196.12,780.8803 L 196.48,780.7603 L 196.96,780.8803 L 197.08,781.0003 L 197.2,781.1203 L 197.32,781.2403 L 197.44,781.3603 L 197.56,781.8403 z M 197.32,773.3203 L 197.32,779.9203 L 195.76,779.9203 L 195.76,773.3203" style="fill:#002850;fill-opacity:1;fill-rule:evenodd;stroke:none" id="path2452"/><path d="M 203.08,783.0403 L 202.6,783.1603 L 202.12,783.1603 L 201.52,783.0403 L 201.04,782.9203 L 200.44,782.8003 L 200.2,782.4403 L 199.84,782.0803 L 199.72,781.6003 L 199.6,781.1203 L 199.6,780.4003 L 199.6,779.9203 L 198.4,779.9203 L 198.4,778.6003 L 199.6,778.6003 L 199.6,773.3203 L 201.16,773.3203 L 201.16,778.6003 L 202.72,778.6003 L 202.72,779.9203 L 201.16,779.9203 L 201.16,780.4003 L 201.28,781.1203 L 201.4,781.4803 L 201.64,781.6003 L 201.76,781.7203 L 202,781.7203 L 202.24,781.8403 L 202.6,781.7203 L 203.08,781.6003" style="fill:#002850;fill-opacity:1;fill-rule:evenodd;stroke:none" id="path2454"/><path d="M 207.04,773.3203 L 207.04,774.6403 L 206.56,774.6403 L 206.2,774.5203 L 205.72,774.6403 L 205.72,774.7603 L 205.6,774.8803 L 205.48,775.0003 L 205.48,775.2403 L 205.36,775.7203 L 205.36,778.6003 L 207.04,778.6003 L 207.04,779.9203 L 205.36,779.9203 L 205.36,782.4403 L 203.68,781.9603 L 203.68,779.9203 L 202.6,779.9203 L 202.6,778.6003 L 203.68,778.6003 L 203.68,775.2403 L 203.68,774.6403 L 203.8,774.4003 L 203.8,774.2803 L 203.92,773.9203 L 204.16,773.5603 L 204.4,773.4403 L 204.76,773.3203 L 205.12,773.2003 L 205.6,773.2003 L 206.32,773.2003" style="fill:#002850;fill-opacity:1;fill-rule:evenodd;stroke:none" id="path2456"/><path d="M 213.88,773.3203 L 213.88,779.9203 L 212.2,779.9203 L 212.2,776.8003 L 212.2,776.3203 L 212.08,775.9603 L 211.96,775.4803 L 211.72,775.2403 L 211.6,775.0003 L 211.36,774.7603 L 211.12,774.6403 L 210.76,774.5203 L 210.52,774.5203 L 210.4,774.6403 L 210.16,774.8803 L 209.92,775.2403 L 209.92,775.7203 L 209.92,779.9203 L 208.36,779.9203 L 208.36,775.2403 L 208.36,774.8803 L 208.36,774.4003 L 208.48,774.0403 L 208.72,773.6803 L 208.96,773.5603 L 209.32,773.3203 L 209.68,773.2003 L 210.28,773.2003 L 210.52,773.2003 L 211,773.2003 L 211.24,773.4403 L 211.6,773.5603 L 211.72,773.6803 L 212.08,773.9203 L 212.32,774.2803 L 212.44,774.4003 L 212.44,773.8003 L 212.32,773.3203" style="fill:#002850;fill-opacity:1;fill-rule:evenodd;stroke:none" id="path2458"/><path d="M 221.2,773.3203 L 221.2,777.8803 L 221.2,778.3603 L 221.08,778.7203 L 221.08,779.2003 L 220.84,779.4403 L 220.6,779.6803 L 220.24,779.9203 L 219.76,780.0403 L 219.28,780.0403 L 219.04,780.0403 L 218.56,780.0403 L 218.32,779.8003 L 217.96,779.6803 L 217.72,779.4403 L 217.48,779.3203 L 217.24,778.9603 L 217.12,778.7203 L 217.12,779.4403 L 217.24,779.9203 L 215.68,779.9203 L 215.68,773.3203 L 217.24,773.3203 L 217.24,776.4403 L 217.36,776.9203 L 217.48,777.2803 L 217.6,777.7603 L 217.72,778.0003 L 217.96,778.2403 L 218.2,778.4803 L 218.44,778.6003 L 218.8,778.6003 L 219.04,778.6003 L 219.16,778.6003 L 219.4,778.3603 L 219.64,778.0003 L 219.64,777.5203 L 219.64,773.3203" style="fill:#002850;fill-opacity:1;fill-rule:evenodd;stroke:none" id="path2460"/><path d="M 228.88,772.6003 L 228.88,772.9603 L 228.76,773.4403 L 228.52,773.6803 L 228.4,774.0403 L 227.92,774.2803 L 227.68,774.4003 L 227.08,774.4003 L 226.72,774.4003 L 225.76,774.4003 L 225.16,774.5203 L 225.04,774.5203 L 224.92,774.5203 L 224.8,774.6403 L 224.68,774.8803 L 224.8,775.2403 L 225.04,775.2403 L 225.28,775.2403 L 225.64,775.2403 L 226.24,775.2403 L 226.84,775.4803 L 227.32,775.6003 L 227.68,775.9603 L 228.04,776.3203 L 228.28,776.6803 L 228.4,777.1603 L 228.4,777.7603 L 228.4,778.0003 L 228.4,778.2403 L 228.28,778.4803 L 228.04,778.6003 L 229,778.6003 L 229,779.9203 L 226.84,779.9203 L 226.24,780.0403 L 225.76,780.0403 L 225.04,780.0403 L 224.68,779.9203 L 224.32,779.9203 L 223.84,779.5603 L 223.48,779.3203 L 223.36,779.0803 L 223.12,778.9603 L 223,778.7203 L 223,778.4803 L 222.76,778.0003 L 222.76,777.5203 L 222.88,776.9203 L 223,776.3203 L 223.12,776.0803 L 223.24,775.9603 L 223.48,775.8403 L 223.72,775.6003 L 223.36,775.4803 L 223.12,775.2403 L 223,775.0003 L 223,774.8803 L 223,774.4003 L 223,774.1603 L 223.12,773.9203 L 223.24,773.5603 L 223.6,773.5603 L 223.12,773.2003 L 223,772.9603 L 222.88,772.8403 L 222.76,772.6003 L 222.64,772.3603 L 222.52,771.8803 L 222.64,771.4003 L 222.76,771.0403 L 222.88,770.9203 L 223,770.6803 L 223.36,770.3203 L 223.72,770.2003 L 224.2,770.0803 L 224.8,769.9603 L 225.28,769.9603 L 226.12,769.9603 L 226.48,770.0803 L 226.84,770.2003 L 227.44,770.3203 L 227.92,770.6803 L 228.4,771.0403 L 228.4,771.2803 L 228.64,771.5203 L 228.76,771.7603 L 228.88,772.0003 L 228.88,772.2403 L 228.88,772.6003 z M 226.84,777.6403 L 226.84,777.4003 L 226.72,777.0403 L 226.6,776.9203 L 226.48,776.8003 L 226.36,776.6803 L 226.12,776.5603 L 225.64,776.4403 L 225.28,776.4403 L 225.04,776.5603 L 224.92,776.6803 L 224.68,776.8003 L 224.44,776.9203 L 224.32,777.1603 L 224.32,777.4003 L 224.32,777.6403 L 224.32,777.8803 L 224.32,778.1203 L 224.44,778.3603 L 224.68,778.4803 L 224.92,778.6003 L 225.04,778.7203 L 225.28,778.7203 L 225.64,778.8403 L 225.88,778.7203 L 226.12,778.7203 L 226.36,778.6003 L 226.48,778.6003 L 226.72,778.1203 L 226.84,777.8803 L 226.84,777.6403 z M 227.2,772.3603 L 227.2,772.0003 L 227.08,771.8803 L 227.08,771.7603 L 226.84,771.5203 L 226.6,771.4003 L 226.36,771.2803 L 226,771.1603 L 225.64,771.1603 L 225.28,771.1603 L 225.04,771.2803 L 224.56,771.5203 L 224.44,771.6403 L 224.32,771.8803 L 224.2,772.1203 L 224.32,772.4803 L 224.32,772.7203 L 224.56,772.9603 L 224.8,773.2003 L 225.04,773.2003 L 226.24,773.2003 L 226.72,773.0803 L 227.08,772.8403 L 227.08,772.7203 L 227.2,772.7203 L 227.2,772.4803" style="fill:#002850;fill-opacity:1;fill-rule:evenodd;stroke:none" id="path2462"/><path d="M 77.68,787.6003 C 77.68,788.2003 77.08,788.8003 76.48,788.8003 C 75.76,788.8003 75.16,788.2003 75.16,787.6003 C 75.16,787.0003 75.76,786.4003 76.48,786.4003 C 77.08,786.4003 77.68,787.0003 77.68,787.6003" style="fill:#002850;fill-opacity:1;fill-rule:evenodd;stroke:none" id="path2464"/><path d="M 86.8,787.6003 C 86.8,788.2003 86.2,788.8003 85.6,788.8003 C 85,788.8003 84.4,788.2003 84.4,787.6003 C 84.4,787.0003 85,786.4003 85.6,786.4003 C 86.2,786.4003 86.8,787.0003 86.8,787.6003" style="fill:#002850;fill-opacity:1;fill-rule:evenodd;stroke:none" id="path2466"/><path d="M 96.04,787.6003 C 96.04,788.2003 95.56,788.8003 94.96,788.8003 C 94.24,788.8003 93.76,788.2003 93.76,787.6003 C 93.76,787.0003 94.24,786.4003 94.96,786.4003 C 95.56,786.4003 96.04,787.0003 96.04,787.6003" style="fill:#002850;fill-opacity:1;fill-rule:evenodd;stroke:none" id="path2468"/><path d="M 77.68,778.0003 C 77.68,778.6003 77.08,779.2003 76.48,779.2003 C 75.76,779.2003 75.16,778.6003 75.16,778.0003 C 75.16,777.4003 75.76,776.8003 76.48,776.8003 C 77.08,776.8003 77.68,777.4003 77.68,778.0003" style="fill:#002850;fill-opacity:1;fill-rule:evenodd;stroke:none" id="path2470"/><path d="M 96.04,778.0003 C 96.04,778.6003 95.56,779.2003 94.96,779.2003 C 94.24,779.2003 93.76,778.6003 93.76,778.0003 C 93.76,777.4003 94.24,776.8003 94.96,776.8003 C 95.56,776.8003 96.04,777.4003 96.04,778.0003" style="fill:#002850;fill-opacity:1;fill-rule:evenodd;stroke:none" id="path2472"/><path d="M 86.8,768.6403 C 86.8,769.2403 86.2,769.8403 85.6,769.8403 C 85,769.8403 84.4,769.2403 84.4,768.6403 C 84.4,768.0403 85,767.4403 85.6,767.4403 C 86.2,767.4403 86.8,768.0403 86.8,768.6403" style="fill:#002850;fill-opacity:1;fill-rule:evenodd;stroke:none" id="path2474"/><path d="M 77.68,758.9203 C 77.68,759.5203 77.08,760.1203 76.48,760.1203 C 75.76,760.1203 75.16,759.5203 75.16,758.9203 C 75.16,758.3203 75.76,757.7203 76.48,757.7203 C 77.08,757.7203 77.68,758.3203 77.68,758.9203" style="fill:#002850;fill-opacity:1;fill-rule:evenodd;stroke:none" id="path2476"/><path d="M 86.8,758.9203 C 86.8,759.5203 86.2,760.1203 85.6,760.1203 C 85,760.1203 84.4,759.5203 84.4,758.9203 C 84.4,758.3203 85,757.7203 85.6,757.7203 C 86.2,757.7203 86.8,758.3203 86.8,758.9203" style="fill:#002850;fill-opacity:1;fill-rule:evenodd;stroke:none" id="path2478"/><path d="M 96.04,758.9203 C 96.04,759.5203 95.56,760.1203 94.96,760.1203 C 94.24,760.1203 93.76,759.5203 93.76,758.9203 C 93.76,758.3203 94.24,757.7203 94.96,757.7203 C 95.56,757.7203 96.04,758.3203 96.04,758.9203" style="fill:#002850;fill-opacity:1;fill-rule:evenodd;stroke:none" id="path2480"/><g id="g2482" transform="translate(1.6,-1.6)"><g id="g2484" clip-path="url(#clipPath2486)"><g id="g2490" transform="scale(-0.98213,1.0182)"><g id="g2492"><path d="M -72.6994,777.3334 L -152.9743,777.3334 L -233.1269,777.3334 L -233.1269,743.7447 L -152.9743,743.7447 L -72.6994,743.7447 L -72.6994,777.3334" style="fill:none;stroke:#ffffff;stroke-width:0.2062;stroke-linecap:round;stroke-linejoin:round;stroke-miterlimit:10;stroke-dasharray:none;stroke-opacity:1" id="path2494"/></g></g></g></g></g></svg>